<svg xmlns="http://www.w3.org/2000/svg" xmlns:xlink="http://www.w3.org/1999/xlink" width="41.195" height="57.934" viewBox="0 0 41.195 57.934">
  <defs>
    <clipPath id="clip-path">
      <path id="패스_684" data-name="패스 684" d="M-1066.059-231.215c-10.271,0-18.6,8.68-18.6,19.387,0,.222.007.445.017.671a19.977,19.977,0,0,0,1.494,6.99c3.809,11.039,13.647,23.81,15.7,26.41a1.242,1.242,0,0,0,.972.476h.825a1.242,1.242,0,0,0,.972-.476c2.056-2.6,11.894-15.371,15.7-26.41a19.988,19.988,0,0,0,1.495-6.99c.009-.226.016-.449.016-.671C-1047.461-222.535-1055.789-231.215-1066.059-231.215Z" transform="translate(1084.657 231.215)" fill="#3856ee" clip-rule="evenodd"/>
    </clipPath>
  </defs>
  <g id="그룹_1922" data-name="그룹 1922" transform="translate(19540.001 20855.934)">
    <path id="패스_685" data-name="패스 685" d="M-1066.059-231.215c-10.271,0-18.6,8.68-18.6,19.387,0,.222.007.445.017.671a19.977,19.977,0,0,0,1.494,6.99c3.809,11.039,13.647,23.81,15.7,26.41a1.242,1.242,0,0,0,.972.476h.825a1.242,1.242,0,0,0,.972-.476c2.056-2.6,11.894-15.371,15.7-26.41a19.988,19.988,0,0,0,1.495-6.99c.009-.226.016-.449.016-.671C-1047.461-222.535-1055.789-231.215-1066.059-231.215Z" transform="translate(-18453.344 -20622.719)" fill="none" stroke="#fff" stroke-width="4" fill-rule="evenodd"/>
    <g id="마스크_그룹_109" data-name="마스크 그룹 109" transform="translate(-19538 -20853.934)" clip-path="url(#clip-path)">
      <path id="패스_683" data-name="패스 683" d="M-1066.059-231.215c-10.271,0-18.6,8.68-18.6,19.387,0,.222.007.445.017.671a19.977,19.977,0,0,0,1.494,6.99c3.809,11.039,13.647,23.81,15.7,26.41a1.242,1.242,0,0,0,.972.476h.825a1.242,1.242,0,0,0,.972-.476c2.056-2.6,11.894-15.371,15.7-26.41a19.988,19.988,0,0,0,1.495-6.99c.009-.226.016-.449.016-.671C-1047.461-222.535-1055.789-231.215-1066.059-231.215Z" transform="translate(1084.657 231.215)" fill="#3856ee" stroke="#fff" stroke-width="4" fill-rule="evenodd"/>
      <g id="그룹_1921" data-name="그룹 1921" transform="translate(-1.834 -1.858)">
        <rect id="사각형_1454" data-name="사각형 1454" width="40.342" height="55.746" fill="#3856ee"/>
        <rect id="사각형_1455" data-name="사각형 1455" width="2.751" height="55.746" transform="translate(4.126)" fill="#659bfc"/>
        <rect id="사각형_1456" data-name="사각형 1456" width="2.751" height="55.746" transform="translate(11.094)" fill="#659bfc"/>
        <rect id="사각형_1457" data-name="사각형 1457" width="2.751" height="55.746" transform="translate(18.429)" fill="#659bfc"/>
        <rect id="사각형_1458" data-name="사각형 1458" width="2.751" height="55.746" transform="translate(25.764)" fill="#659bfc"/>
        <rect id="사각형_1459" data-name="사각형 1459" width="2.751" height="55.746" transform="translate(33.099)" fill="#659bfc"/>
      </g>
    </g>
    <circle id="타원_163" data-name="타원 163" cx="12" cy="12" r="12" transform="translate(-19531.305 -20846.494)" fill="#fff"/>
  </g>
</svg>
